%TF.GenerationSoftware,KiCad,Pcbnew,(5.1.9)-1*%
%TF.CreationDate,2021-02-19T17:39:31-08:00*%
%TF.ProjectId,rc-640k,72632d36-3430-46b2-9e6b-696361645f70,rev?*%
%TF.SameCoordinates,PX9157080PY9071968*%
%TF.FileFunction,Legend,Top*%
%TF.FilePolarity,Positive*%
%FSLAX46Y46*%
G04 Gerber Fmt 4.6, Leading zero omitted, Abs format (unit mm)*
G04 Created by KiCad (PCBNEW (5.1.9)-1) date 2021-02-19 17:39:31*
%MOMM*%
%LPD*%
G01*
G04 APERTURE LIST*
%ADD10C,0.300000*%
%ADD11C,0.150000*%
%ADD12C,0.200000*%
%ADD13C,0.120000*%
%ADD14C,0.100000*%
G04 APERTURE END LIST*
D10*
X82685714Y45371629D02*
X82685714Y46871629D01*
X83257142Y46871629D01*
X83400000Y46800200D01*
X83471428Y46728772D01*
X83542857Y46585915D01*
X83542857Y46371629D01*
X83471428Y46228772D01*
X83400000Y46157343D01*
X83257142Y46085915D01*
X82685714Y46085915D01*
X84185714Y45371629D02*
X84185714Y46871629D01*
X84542857Y46871629D01*
X84757142Y46800200D01*
X84900000Y46657343D01*
X84971428Y46514486D01*
X85042857Y46228772D01*
X85042857Y46014486D01*
X84971428Y45728772D01*
X84900000Y45585915D01*
X84757142Y45443058D01*
X84542857Y45371629D01*
X84185714Y45371629D01*
X86471428Y45371629D02*
X85614285Y45371629D01*
X86042857Y45371629D02*
X86042857Y46871629D01*
X85900000Y46657343D01*
X85757142Y46514486D01*
X85614285Y46443058D01*
X87400000Y46871629D02*
X87542857Y46871629D01*
X87685714Y46800200D01*
X87757142Y46728772D01*
X87828571Y46585915D01*
X87900000Y46300200D01*
X87900000Y45943058D01*
X87828571Y45657343D01*
X87757142Y45514486D01*
X87685714Y45443058D01*
X87542857Y45371629D01*
X87400000Y45371629D01*
X87257142Y45443058D01*
X87185714Y45514486D01*
X87114285Y45657343D01*
X87042857Y45943058D01*
X87042857Y46300200D01*
X87114285Y46585915D01*
X87185714Y46728772D01*
X87257142Y46800200D01*
X87400000Y46871629D01*
X88757142Y46228772D02*
X88614285Y46300200D01*
X88542857Y46371629D01*
X88471428Y46514486D01*
X88471428Y46585915D01*
X88542857Y46728772D01*
X88614285Y46800200D01*
X88757142Y46871629D01*
X89042857Y46871629D01*
X89185714Y46800200D01*
X89257142Y46728772D01*
X89328571Y46585915D01*
X89328571Y46514486D01*
X89257142Y46371629D01*
X89185714Y46300200D01*
X89042857Y46228772D01*
X88757142Y46228772D01*
X88614285Y46157343D01*
X88542857Y46085915D01*
X88471428Y45943058D01*
X88471428Y45657343D01*
X88542857Y45514486D01*
X88614285Y45443058D01*
X88757142Y45371629D01*
X89042857Y45371629D01*
X89185714Y45443058D01*
X89257142Y45514486D01*
X89328571Y45657343D01*
X89328571Y45943058D01*
X89257142Y46085915D01*
X89185714Y46157343D01*
X89042857Y46228772D01*
X90971428Y46371629D02*
X91328571Y45371629D01*
X91685714Y46371629D01*
X93042857Y45371629D02*
X92185714Y45371629D01*
X92614285Y45371629D02*
X92614285Y46871629D01*
X92471428Y46657343D01*
X92328571Y46514486D01*
X92185714Y46443058D01*
X93685714Y45514486D02*
X93757142Y45443058D01*
X93685714Y45371629D01*
X93614285Y45443058D01*
X93685714Y45514486D01*
X93685714Y45371629D01*
X94685714Y46871629D02*
X94828571Y46871629D01*
X94971428Y46800200D01*
X95042857Y46728772D01*
X95114285Y46585915D01*
X95185714Y46300200D01*
X95185714Y45943058D01*
X95114285Y45657343D01*
X95042857Y45514486D01*
X94971428Y45443058D01*
X94828571Y45371629D01*
X94685714Y45371629D01*
X94542857Y45443058D01*
X94471428Y45514486D01*
X94400000Y45657343D01*
X94328571Y45943058D01*
X94328571Y46300200D01*
X94400000Y46585915D01*
X94471428Y46728772D01*
X94542857Y46800200D01*
X94685714Y46871629D01*
D11*
X19629523Y12577820D02*
X19296190Y13054010D01*
X19058095Y12577820D02*
X19058095Y13577820D01*
X19439047Y13577820D01*
X19534285Y13530200D01*
X19581904Y13482581D01*
X19629523Y13387343D01*
X19629523Y13244486D01*
X19581904Y13149248D01*
X19534285Y13101629D01*
X19439047Y13054010D01*
X19058095Y13054010D01*
X20010476Y12863534D02*
X20486666Y12863534D01*
X19915238Y12577820D02*
X20248571Y13577820D01*
X20581904Y12577820D01*
X20915238Y12577820D02*
X20915238Y13577820D01*
X21248571Y12863534D01*
X21581904Y13577820D01*
X21581904Y12577820D01*
X18891428Y33421629D02*
X18558095Y33421629D01*
X18558095Y32897820D02*
X18558095Y33897820D01*
X19034285Y33897820D01*
X19558095Y32897820D02*
X19462857Y32945439D01*
X19415238Y33040677D01*
X19415238Y33897820D01*
X20367619Y32897820D02*
X20367619Y33421629D01*
X20320000Y33516867D01*
X20224761Y33564486D01*
X20034285Y33564486D01*
X19939047Y33516867D01*
X20367619Y32945439D02*
X20272380Y32897820D01*
X20034285Y32897820D01*
X19939047Y32945439D01*
X19891428Y33040677D01*
X19891428Y33135915D01*
X19939047Y33231153D01*
X20034285Y33278772D01*
X20272380Y33278772D01*
X20367619Y33326391D01*
X20796190Y32945439D02*
X20891428Y32897820D01*
X21081904Y32897820D01*
X21177142Y32945439D01*
X21224761Y33040677D01*
X21224761Y33088296D01*
X21177142Y33183534D01*
X21081904Y33231153D01*
X20939047Y33231153D01*
X20843809Y33278772D01*
X20796190Y33374010D01*
X20796190Y33421629D01*
X20843809Y33516867D01*
X20939047Y33564486D01*
X21081904Y33564486D01*
X21177142Y33516867D01*
X21653333Y32897820D02*
X21653333Y33897820D01*
X22081904Y32897820D02*
X22081904Y33421629D01*
X22034285Y33516867D01*
X21939047Y33564486D01*
X21796190Y33564486D01*
X21700952Y33516867D01*
X21653333Y33469248D01*
X38266309Y18488177D02*
X38266309Y17581034D01*
X38205833Y17399605D01*
X38084880Y17278653D01*
X37903452Y17218177D01*
X37782500Y17218177D01*
X39475833Y17218177D02*
X38871071Y17218177D01*
X38871071Y18488177D01*
X40624880Y17339129D02*
X40564404Y17278653D01*
X40382976Y17218177D01*
X40262023Y17218177D01*
X40080595Y17278653D01*
X39959642Y17399605D01*
X39899166Y17520558D01*
X39838690Y17762462D01*
X39838690Y17943891D01*
X39899166Y18185796D01*
X39959642Y18306748D01*
X40080595Y18427700D01*
X40262023Y18488177D01*
X40382976Y18488177D01*
X40564404Y18427700D01*
X40624880Y18367224D01*
X41532023Y18488177D02*
X41532023Y17581034D01*
X41471547Y17399605D01*
X41350595Y17278653D01*
X41169166Y17218177D01*
X41048214Y17218177D01*
X42741547Y17218177D02*
X42136785Y17218177D01*
X42136785Y18488177D01*
X43890595Y17339129D02*
X43830119Y17278653D01*
X43648690Y17218177D01*
X43527738Y17218177D01*
X43346309Y17278653D01*
X43225357Y17399605D01*
X43164880Y17520558D01*
X43104404Y17762462D01*
X43104404Y17943891D01*
X43164880Y18185796D01*
X43225357Y18306748D01*
X43346309Y18427700D01*
X43527738Y18488177D01*
X43648690Y18488177D01*
X43830119Y18427700D01*
X43890595Y18367224D01*
X44797738Y18488177D02*
X44797738Y17581034D01*
X44737261Y17399605D01*
X44616309Y17278653D01*
X44434880Y17218177D01*
X44313928Y17218177D01*
X46007261Y17218177D02*
X45402500Y17218177D01*
X45402500Y18488177D01*
X47156309Y17339129D02*
X47095833Y17278653D01*
X46914404Y17218177D01*
X46793452Y17218177D01*
X46612023Y17278653D01*
X46491071Y17399605D01*
X46430595Y17520558D01*
X46370119Y17762462D01*
X46370119Y17943891D01*
X46430595Y18185796D01*
X46491071Y18306748D01*
X46612023Y18427700D01*
X46793452Y18488177D01*
X46914404Y18488177D01*
X47095833Y18427700D01*
X47156309Y18367224D01*
X48063452Y18488177D02*
X48063452Y17581034D01*
X48002976Y17399605D01*
X47882023Y17278653D01*
X47700595Y17218177D01*
X47579642Y17218177D01*
X49272976Y17218177D02*
X48668214Y17218177D01*
X48668214Y18488177D01*
X50422023Y17339129D02*
X50361547Y17278653D01*
X50180119Y17218177D01*
X50059166Y17218177D01*
X49877738Y17278653D01*
X49756785Y17399605D01*
X49696309Y17520558D01*
X49635833Y17762462D01*
X49635833Y17943891D01*
X49696309Y18185796D01*
X49756785Y18306748D01*
X49877738Y18427700D01*
X50059166Y18488177D01*
X50180119Y18488177D01*
X50361547Y18427700D01*
X50422023Y18367224D01*
D10*
X29988571Y46646629D02*
X29131428Y46646629D01*
X29560000Y46646629D02*
X29560000Y48146629D01*
X29417142Y47932343D01*
X29274285Y47789486D01*
X29131428Y47718058D01*
X30560000Y48003772D02*
X30631428Y48075200D01*
X30774285Y48146629D01*
X31131428Y48146629D01*
X31274285Y48075200D01*
X31345714Y48003772D01*
X31417142Y47860915D01*
X31417142Y47718058D01*
X31345714Y47503772D01*
X30488571Y46646629D01*
X31417142Y46646629D01*
X32274285Y47503772D02*
X32131428Y47575200D01*
X32060000Y47646629D01*
X31988571Y47789486D01*
X31988571Y47860915D01*
X32060000Y48003772D01*
X32131428Y48075200D01*
X32274285Y48146629D01*
X32560000Y48146629D01*
X32702857Y48075200D01*
X32774285Y48003772D01*
X32845714Y47860915D01*
X32845714Y47789486D01*
X32774285Y47646629D01*
X32702857Y47575200D01*
X32560000Y47503772D01*
X32274285Y47503772D01*
X32131428Y47432343D01*
X32060000Y47360915D01*
X31988571Y47218058D01*
X31988571Y46932343D01*
X32060000Y46789486D01*
X32131428Y46718058D01*
X32274285Y46646629D01*
X32560000Y46646629D01*
X32702857Y46718058D01*
X32774285Y46789486D01*
X32845714Y46932343D01*
X32845714Y47218058D01*
X32774285Y47360915D01*
X32702857Y47432343D01*
X32560000Y47503772D01*
X33488571Y46646629D02*
X33488571Y48146629D01*
X34345714Y46646629D02*
X33702857Y47503772D01*
X34345714Y48146629D02*
X33488571Y47289486D01*
X34988571Y47218058D02*
X36131428Y47218058D01*
X35560000Y46646629D02*
X35560000Y47789486D01*
X37560000Y48146629D02*
X36845714Y48146629D01*
X36774285Y47432343D01*
X36845714Y47503772D01*
X36988571Y47575200D01*
X37345714Y47575200D01*
X37488571Y47503772D01*
X37560000Y47432343D01*
X37631428Y47289486D01*
X37631428Y46932343D01*
X37560000Y46789486D01*
X37488571Y46718058D01*
X37345714Y46646629D01*
X36988571Y46646629D01*
X36845714Y46718058D01*
X36774285Y46789486D01*
X39060000Y46646629D02*
X38202857Y46646629D01*
X38631428Y46646629D02*
X38631428Y48146629D01*
X38488571Y47932343D01*
X38345714Y47789486D01*
X38202857Y47718058D01*
X39631428Y48003772D02*
X39702857Y48075200D01*
X39845714Y48146629D01*
X40202857Y48146629D01*
X40345714Y48075200D01*
X40417142Y48003772D01*
X40488571Y47860915D01*
X40488571Y47718058D01*
X40417142Y47503772D01*
X39560000Y46646629D01*
X40488571Y46646629D01*
X41131428Y46646629D02*
X41131428Y48146629D01*
X41988571Y46646629D02*
X41345714Y47503772D01*
X41988571Y48146629D02*
X41131428Y47289486D01*
X28202857Y44096629D02*
X27702857Y44810915D01*
X27345714Y44096629D02*
X27345714Y45596629D01*
X27917142Y45596629D01*
X28060000Y45525200D01*
X28131428Y45453772D01*
X28202857Y45310915D01*
X28202857Y45096629D01*
X28131428Y44953772D01*
X28060000Y44882343D01*
X27917142Y44810915D01*
X27345714Y44810915D01*
X28774285Y44525200D02*
X29488571Y44525200D01*
X28631428Y44096629D02*
X29131428Y45596629D01*
X29631428Y44096629D01*
X30131428Y44096629D02*
X30131428Y45596629D01*
X30631428Y44525200D01*
X31131428Y45596629D01*
X31131428Y44096629D01*
X32917142Y45668058D02*
X31631428Y43739486D01*
X34274285Y44096629D02*
X33774285Y44810915D01*
X33417142Y44096629D02*
X33417142Y45596629D01*
X33988571Y45596629D01*
X34131428Y45525200D01*
X34202857Y45453772D01*
X34274285Y45310915D01*
X34274285Y45096629D01*
X34202857Y44953772D01*
X34131428Y44882343D01*
X33988571Y44810915D01*
X33417142Y44810915D01*
X35202857Y45596629D02*
X35488571Y45596629D01*
X35631428Y45525200D01*
X35774285Y45382343D01*
X35845714Y45096629D01*
X35845714Y44596629D01*
X35774285Y44310915D01*
X35631428Y44168058D01*
X35488571Y44096629D01*
X35202857Y44096629D01*
X35060000Y44168058D01*
X34917142Y44310915D01*
X34845714Y44596629D01*
X34845714Y45096629D01*
X34917142Y45382343D01*
X35060000Y45525200D01*
X35202857Y45596629D01*
X36488571Y44096629D02*
X36488571Y45596629D01*
X36988571Y44525200D01*
X37488571Y45596629D01*
X37488571Y44096629D01*
X40202857Y44239486D02*
X40131428Y44168058D01*
X39917142Y44096629D01*
X39774285Y44096629D01*
X39560000Y44168058D01*
X39417142Y44310915D01*
X39345714Y44453772D01*
X39274285Y44739486D01*
X39274285Y44953772D01*
X39345714Y45239486D01*
X39417142Y45382343D01*
X39560000Y45525200D01*
X39774285Y45596629D01*
X39917142Y45596629D01*
X40131428Y45525200D01*
X40202857Y45453772D01*
X41488571Y44096629D02*
X41488571Y44882343D01*
X41417142Y45025200D01*
X41274285Y45096629D01*
X40988571Y45096629D01*
X40845714Y45025200D01*
X41488571Y44168058D02*
X41345714Y44096629D01*
X40988571Y44096629D01*
X40845714Y44168058D01*
X40774285Y44310915D01*
X40774285Y44453772D01*
X40845714Y44596629D01*
X40988571Y44668058D01*
X41345714Y44668058D01*
X41488571Y44739486D01*
X42202857Y44096629D02*
X42202857Y45096629D01*
X42202857Y44810915D02*
X42274285Y44953772D01*
X42345714Y45025200D01*
X42488571Y45096629D01*
X42631428Y45096629D01*
X43774285Y44096629D02*
X43774285Y45596629D01*
X43774285Y44168058D02*
X43631428Y44096629D01*
X43345714Y44096629D01*
X43202857Y44168058D01*
X43131428Y44239486D01*
X43060000Y44382343D01*
X43060000Y44810915D01*
X43131428Y44953772D01*
X43202857Y45025200D01*
X43345714Y45096629D01*
X43631428Y45096629D01*
X43774285Y45025200D01*
X1613333Y-4991942D02*
X1613333Y-4277657D01*
X2039047Y-5134800D02*
X549047Y-4634800D01*
X2039047Y-4134800D01*
X2039047Y-2849085D02*
X2039047Y-3706228D01*
X2039047Y-3277657D02*
X549047Y-3277657D01*
X761904Y-3420514D01*
X903809Y-3563371D01*
X974761Y-3706228D01*
X549047Y-1491942D02*
X549047Y-2206228D01*
X1258571Y-2277657D01*
X1187619Y-2206228D01*
X1116666Y-2063371D01*
X1116666Y-1706228D01*
X1187619Y-1563371D01*
X1258571Y-1491942D01*
X1400476Y-1420514D01*
X1755238Y-1420514D01*
X1897142Y-1491942D01*
X1968095Y-1563371D01*
X2039047Y-1706228D01*
X2039047Y-2063371D01*
X1968095Y-2206228D01*
X1897142Y-2277657D01*
X4148333Y-4991942D02*
X4148333Y-4277657D01*
X4574047Y-5134800D02*
X3084047Y-4634800D01*
X4574047Y-4134800D01*
X4574047Y-2849085D02*
X4574047Y-3706228D01*
X4574047Y-3277657D02*
X3084047Y-3277657D01*
X3296904Y-3420514D01*
X3438809Y-3563371D01*
X3509761Y-3706228D01*
X3580714Y-1563371D02*
X4574047Y-1563371D01*
X3013095Y-1920514D02*
X4077380Y-2277657D01*
X4077380Y-1349085D01*
X6683333Y-4991942D02*
X6683333Y-4277657D01*
X7109047Y-5134800D02*
X5619047Y-4634800D01*
X7109047Y-4134800D01*
X7109047Y-2849085D02*
X7109047Y-3706228D01*
X7109047Y-3277657D02*
X5619047Y-3277657D01*
X5831904Y-3420514D01*
X5973809Y-3563371D01*
X6044761Y-3706228D01*
X5619047Y-2349085D02*
X5619047Y-1420514D01*
X6186666Y-1920514D01*
X6186666Y-1706228D01*
X6257619Y-1563371D01*
X6328571Y-1491942D01*
X6470476Y-1420514D01*
X6825238Y-1420514D01*
X6967142Y-1491942D01*
X7038095Y-1563371D01*
X7109047Y-1706228D01*
X7109047Y-2134800D01*
X7038095Y-2277657D01*
X6967142Y-2349085D01*
X9218333Y-4991942D02*
X9218333Y-4277657D01*
X9644047Y-5134800D02*
X8154047Y-4634800D01*
X9644047Y-4134800D01*
X9644047Y-2849085D02*
X9644047Y-3706228D01*
X9644047Y-3277657D02*
X8154047Y-3277657D01*
X8366904Y-3420514D01*
X8508809Y-3563371D01*
X8579761Y-3706228D01*
X8295952Y-2277657D02*
X8225000Y-2206228D01*
X8154047Y-2063371D01*
X8154047Y-1706228D01*
X8225000Y-1563371D01*
X8295952Y-1491942D01*
X8437857Y-1420514D01*
X8579761Y-1420514D01*
X8792619Y-1491942D01*
X9644047Y-2349085D01*
X9644047Y-1420514D01*
X11753333Y-4991942D02*
X11753333Y-4277657D01*
X12179047Y-5134800D02*
X10689047Y-4634800D01*
X12179047Y-4134800D01*
X12179047Y-2849085D02*
X12179047Y-3706228D01*
X12179047Y-3277657D02*
X10689047Y-3277657D01*
X10901904Y-3420514D01*
X11043809Y-3563371D01*
X11114761Y-3706228D01*
X12179047Y-1420514D02*
X12179047Y-2277657D01*
X12179047Y-1849085D02*
X10689047Y-1849085D01*
X10901904Y-1991942D01*
X11043809Y-2134800D01*
X11114761Y-2277657D01*
X14288333Y-4991942D02*
X14288333Y-4277657D01*
X14714047Y-5134800D02*
X13224047Y-4634800D01*
X14714047Y-4134800D01*
X14714047Y-2849085D02*
X14714047Y-3706228D01*
X14714047Y-3277657D02*
X13224047Y-3277657D01*
X13436904Y-3420514D01*
X13578809Y-3563371D01*
X13649761Y-3706228D01*
X13224047Y-1920514D02*
X13224047Y-1777657D01*
X13295000Y-1634800D01*
X13365952Y-1563371D01*
X13507857Y-1491942D01*
X13791666Y-1420514D01*
X14146428Y-1420514D01*
X14430238Y-1491942D01*
X14572142Y-1563371D01*
X14643095Y-1634800D01*
X14714047Y-1777657D01*
X14714047Y-1920514D01*
X14643095Y-2063371D01*
X14572142Y-2134800D01*
X14430238Y-2206228D01*
X14146428Y-2277657D01*
X13791666Y-2277657D01*
X13507857Y-2206228D01*
X13365952Y-2134800D01*
X13295000Y-2063371D01*
X13224047Y-1920514D01*
X16823333Y-3563371D02*
X16823333Y-2849085D01*
X17249047Y-3706228D02*
X15759047Y-3206228D01*
X17249047Y-2706228D01*
X17249047Y-2134800D02*
X17249047Y-1849085D01*
X17178095Y-1706228D01*
X17107142Y-1634800D01*
X16894285Y-1491942D01*
X16610476Y-1420514D01*
X16042857Y-1420514D01*
X15900952Y-1491942D01*
X15830000Y-1563371D01*
X15759047Y-1706228D01*
X15759047Y-1991942D01*
X15830000Y-2134800D01*
X15900952Y-2206228D01*
X16042857Y-2277657D01*
X16397619Y-2277657D01*
X16539523Y-2206228D01*
X16610476Y-2134800D01*
X16681428Y-1991942D01*
X16681428Y-1706228D01*
X16610476Y-1563371D01*
X16539523Y-1491942D01*
X16397619Y-1420514D01*
X19358333Y-3563371D02*
X19358333Y-2849085D01*
X19784047Y-3706228D02*
X18294047Y-3206228D01*
X19784047Y-2706228D01*
X18932619Y-1991942D02*
X18861666Y-2134800D01*
X18790714Y-2206228D01*
X18648809Y-2277657D01*
X18577857Y-2277657D01*
X18435952Y-2206228D01*
X18365000Y-2134800D01*
X18294047Y-1991942D01*
X18294047Y-1706228D01*
X18365000Y-1563371D01*
X18435952Y-1491942D01*
X18577857Y-1420514D01*
X18648809Y-1420514D01*
X18790714Y-1491942D01*
X18861666Y-1563371D01*
X18932619Y-1706228D01*
X18932619Y-1991942D01*
X19003571Y-2134800D01*
X19074523Y-2206228D01*
X19216428Y-2277657D01*
X19500238Y-2277657D01*
X19642142Y-2206228D01*
X19713095Y-2134800D01*
X19784047Y-1991942D01*
X19784047Y-1706228D01*
X19713095Y-1563371D01*
X19642142Y-1491942D01*
X19500238Y-1420514D01*
X19216428Y-1420514D01*
X19074523Y-1491942D01*
X19003571Y-1563371D01*
X18932619Y-1706228D01*
X21893333Y-3563371D02*
X21893333Y-2849085D01*
X22319047Y-3706228D02*
X20829047Y-3206228D01*
X22319047Y-2706228D01*
X20829047Y-2349085D02*
X20829047Y-1349085D01*
X22319047Y-1991942D01*
X24428333Y-3563371D02*
X24428333Y-2849085D01*
X24854047Y-3706228D02*
X23364047Y-3206228D01*
X24854047Y-2706228D01*
X23364047Y-1563371D02*
X23364047Y-1849085D01*
X23435000Y-1991942D01*
X23505952Y-2063371D01*
X23718809Y-2206228D01*
X24002619Y-2277657D01*
X24570238Y-2277657D01*
X24712142Y-2206228D01*
X24783095Y-2134800D01*
X24854047Y-1991942D01*
X24854047Y-1706228D01*
X24783095Y-1563371D01*
X24712142Y-1491942D01*
X24570238Y-1420514D01*
X24215476Y-1420514D01*
X24073571Y-1491942D01*
X24002619Y-1563371D01*
X23931666Y-1706228D01*
X23931666Y-1991942D01*
X24002619Y-2134800D01*
X24073571Y-2206228D01*
X24215476Y-2277657D01*
X26963333Y-3563371D02*
X26963333Y-2849085D01*
X27389047Y-3706228D02*
X25899047Y-3206228D01*
X27389047Y-2706228D01*
X25899047Y-1491942D02*
X25899047Y-2206228D01*
X26608571Y-2277657D01*
X26537619Y-2206228D01*
X26466666Y-2063371D01*
X26466666Y-1706228D01*
X26537619Y-1563371D01*
X26608571Y-1491942D01*
X26750476Y-1420514D01*
X27105238Y-1420514D01*
X27247142Y-1491942D01*
X27318095Y-1563371D01*
X27389047Y-1706228D01*
X27389047Y-2063371D01*
X27318095Y-2206228D01*
X27247142Y-2277657D01*
X29498333Y-3563371D02*
X29498333Y-2849085D01*
X29924047Y-3706228D02*
X28434047Y-3206228D01*
X29924047Y-2706228D01*
X28930714Y-1563371D02*
X29924047Y-1563371D01*
X28363095Y-1920514D02*
X29427380Y-2277657D01*
X29427380Y-1349085D01*
X32033333Y-3563371D02*
X32033333Y-2849085D01*
X32459047Y-3706228D02*
X30969047Y-3206228D01*
X32459047Y-2706228D01*
X30969047Y-2349085D02*
X30969047Y-1420514D01*
X31536666Y-1920514D01*
X31536666Y-1706228D01*
X31607619Y-1563371D01*
X31678571Y-1491942D01*
X31820476Y-1420514D01*
X32175238Y-1420514D01*
X32317142Y-1491942D01*
X32388095Y-1563371D01*
X32459047Y-1706228D01*
X32459047Y-2134800D01*
X32388095Y-2277657D01*
X32317142Y-2349085D01*
X34568333Y-3563371D02*
X34568333Y-2849085D01*
X34994047Y-3706228D02*
X33504047Y-3206228D01*
X34994047Y-2706228D01*
X33645952Y-2277657D02*
X33575000Y-2206228D01*
X33504047Y-2063371D01*
X33504047Y-1706228D01*
X33575000Y-1563371D01*
X33645952Y-1491942D01*
X33787857Y-1420514D01*
X33929761Y-1420514D01*
X34142619Y-1491942D01*
X34994047Y-2349085D01*
X34994047Y-1420514D01*
X37103333Y-3563371D02*
X37103333Y-2849085D01*
X37529047Y-3706228D02*
X36039047Y-3206228D01*
X37529047Y-2706228D01*
X37529047Y-1420514D02*
X37529047Y-2277657D01*
X37529047Y-1849085D02*
X36039047Y-1849085D01*
X36251904Y-1991942D01*
X36393809Y-2134800D01*
X36464761Y-2277657D01*
X39638333Y-3563371D02*
X39638333Y-2849085D01*
X40064047Y-3706228D02*
X38574047Y-3206228D01*
X40064047Y-2706228D01*
X38574047Y-1920514D02*
X38574047Y-1777657D01*
X38645000Y-1634800D01*
X38715952Y-1563371D01*
X38857857Y-1491942D01*
X39141666Y-1420514D01*
X39496428Y-1420514D01*
X39780238Y-1491942D01*
X39922142Y-1563371D01*
X39993095Y-1634800D01*
X40064047Y-1777657D01*
X40064047Y-1920514D01*
X39993095Y-2063371D01*
X39922142Y-2134800D01*
X39780238Y-2206228D01*
X39496428Y-2277657D01*
X39141666Y-2277657D01*
X38857857Y-2206228D01*
X38715952Y-2134800D01*
X38645000Y-2063371D01*
X38574047Y-1920514D01*
X41180000Y-4206228D02*
X41109047Y-4349085D01*
X41109047Y-4563371D01*
X41180000Y-4777657D01*
X41321904Y-4920514D01*
X41463809Y-4991942D01*
X41747619Y-5063371D01*
X41960476Y-5063371D01*
X42244285Y-4991942D01*
X42386190Y-4920514D01*
X42528095Y-4777657D01*
X42599047Y-4563371D01*
X42599047Y-4420514D01*
X42528095Y-4206228D01*
X42457142Y-4134800D01*
X41960476Y-4134800D01*
X41960476Y-4420514D01*
X41605714Y-3491942D02*
X42599047Y-3491942D01*
X41747619Y-3491942D02*
X41676666Y-3420514D01*
X41605714Y-3277657D01*
X41605714Y-3063371D01*
X41676666Y-2920514D01*
X41818571Y-2849085D01*
X42599047Y-2849085D01*
X42599047Y-1491942D02*
X41109047Y-1491942D01*
X42528095Y-1491942D02*
X42599047Y-1634800D01*
X42599047Y-1920514D01*
X42528095Y-2063371D01*
X42457142Y-2134800D01*
X42315238Y-2206228D01*
X41889523Y-2206228D01*
X41747619Y-2134800D01*
X41676666Y-2063371D01*
X41605714Y-1920514D01*
X41605714Y-1634800D01*
X41676666Y-1491942D01*
X43644047Y-2634800D02*
X43644047Y-3349085D01*
X44353571Y-3420514D01*
X44282619Y-3349085D01*
X44211666Y-3206228D01*
X44211666Y-2849085D01*
X44282619Y-2706228D01*
X44353571Y-2634800D01*
X44495476Y-2563371D01*
X44850238Y-2563371D01*
X44992142Y-2634800D01*
X45063095Y-2706228D01*
X45134047Y-2849085D01*
X45134047Y-3206228D01*
X45063095Y-3349085D01*
X44992142Y-3420514D01*
X44140714Y-2063371D02*
X45134047Y-1706228D01*
X44140714Y-1349085D01*
X47669047Y-3920514D02*
X46179047Y-3920514D01*
X47243333Y-3420514D01*
X46179047Y-2920514D01*
X47669047Y-2920514D01*
X47669047Y-1420514D02*
X47669047Y-2277657D01*
X47669047Y-1849085D02*
X46179047Y-1849085D01*
X46391904Y-1991942D01*
X46533809Y-2134800D01*
X46604761Y-2277657D01*
X50204047Y-6063371D02*
X49494523Y-6563371D01*
X50204047Y-6920514D02*
X48714047Y-6920514D01*
X48714047Y-6349085D01*
X48785000Y-6206228D01*
X48855952Y-6134800D01*
X48997857Y-6063371D01*
X49210714Y-6063371D01*
X49352619Y-6134800D01*
X49423571Y-6206228D01*
X49494523Y-6349085D01*
X49494523Y-6920514D01*
X50133095Y-4849085D02*
X50204047Y-4991942D01*
X50204047Y-5277657D01*
X50133095Y-5420514D01*
X49991190Y-5491942D01*
X49423571Y-5491942D01*
X49281666Y-5420514D01*
X49210714Y-5277657D01*
X49210714Y-4991942D01*
X49281666Y-4849085D01*
X49423571Y-4777657D01*
X49565476Y-4777657D01*
X49707380Y-5491942D01*
X50133095Y-4206228D02*
X50204047Y-4063371D01*
X50204047Y-3777657D01*
X50133095Y-3634800D01*
X49991190Y-3563371D01*
X49920238Y-3563371D01*
X49778333Y-3634800D01*
X49707380Y-3777657D01*
X49707380Y-3991942D01*
X49636428Y-4134800D01*
X49494523Y-4206228D01*
X49423571Y-4206228D01*
X49281666Y-4134800D01*
X49210714Y-3991942D01*
X49210714Y-3777657D01*
X49281666Y-3634800D01*
X50133095Y-2349085D02*
X50204047Y-2491942D01*
X50204047Y-2777657D01*
X50133095Y-2920514D01*
X49991190Y-2991942D01*
X49423571Y-2991942D01*
X49281666Y-2920514D01*
X49210714Y-2777657D01*
X49210714Y-2491942D01*
X49281666Y-2349085D01*
X49423571Y-2277657D01*
X49565476Y-2277657D01*
X49707380Y-2991942D01*
X49210714Y-1849085D02*
X49210714Y-1277657D01*
X48714047Y-1634800D02*
X49991190Y-1634800D01*
X50133095Y-1563371D01*
X50204047Y-1420514D01*
X50204047Y-1277657D01*
X52597142Y-6063371D02*
X52668095Y-6134800D01*
X52739047Y-6349085D01*
X52739047Y-6491942D01*
X52668095Y-6706228D01*
X52526190Y-6849085D01*
X52384285Y-6920514D01*
X52100476Y-6991942D01*
X51887619Y-6991942D01*
X51603809Y-6920514D01*
X51461904Y-6849085D01*
X51320000Y-6706228D01*
X51249047Y-6491942D01*
X51249047Y-6349085D01*
X51320000Y-6134800D01*
X51390952Y-6063371D01*
X52739047Y-5206228D02*
X52668095Y-5349085D01*
X52526190Y-5420514D01*
X51249047Y-5420514D01*
X52739047Y-4420514D02*
X52668095Y-4563371D01*
X52597142Y-4634800D01*
X52455238Y-4706228D01*
X52029523Y-4706228D01*
X51887619Y-4634800D01*
X51816666Y-4563371D01*
X51745714Y-4420514D01*
X51745714Y-4206228D01*
X51816666Y-4063371D01*
X51887619Y-3991942D01*
X52029523Y-3920514D01*
X52455238Y-3920514D01*
X52597142Y-3991942D01*
X52668095Y-4063371D01*
X52739047Y-4206228D01*
X52739047Y-4420514D01*
X52668095Y-2634800D02*
X52739047Y-2777657D01*
X52739047Y-3063371D01*
X52668095Y-3206228D01*
X52597142Y-3277657D01*
X52455238Y-3349085D01*
X52029523Y-3349085D01*
X51887619Y-3277657D01*
X51816666Y-3206228D01*
X51745714Y-3063371D01*
X51745714Y-2777657D01*
X51816666Y-2634800D01*
X52739047Y-1991942D02*
X51249047Y-1991942D01*
X52171428Y-1849085D02*
X52739047Y-1420514D01*
X51745714Y-1420514D02*
X52313333Y-1991942D01*
X55274047Y-4206228D02*
X53784047Y-4206228D01*
X55274047Y-3491942D02*
X53784047Y-3491942D01*
X55274047Y-2634800D01*
X53784047Y-2634800D01*
X53784047Y-2134800D02*
X53784047Y-1277657D01*
X55274047Y-1706228D02*
X53784047Y-1706228D01*
X57809047Y-6063371D02*
X56319047Y-6063371D01*
X57383333Y-5563371D01*
X56319047Y-5063371D01*
X57809047Y-5063371D01*
X57809047Y-4349085D02*
X56815714Y-4349085D01*
X57099523Y-4349085D02*
X56957619Y-4277657D01*
X56886666Y-4206228D01*
X56815714Y-4063371D01*
X56815714Y-3920514D01*
X57738095Y-2849085D02*
X57809047Y-2991942D01*
X57809047Y-3277657D01*
X57738095Y-3420514D01*
X57596190Y-3491942D01*
X57028571Y-3491942D01*
X56886666Y-3420514D01*
X56815714Y-3277657D01*
X56815714Y-2991942D01*
X56886666Y-2849085D01*
X57028571Y-2777657D01*
X57170476Y-2777657D01*
X57312380Y-3491942D01*
X56815714Y-1491942D02*
X58305714Y-1491942D01*
X57738095Y-1491942D02*
X57809047Y-1634800D01*
X57809047Y-1920514D01*
X57738095Y-2063371D01*
X57667142Y-2134800D01*
X57525238Y-2206228D01*
X57099523Y-2206228D01*
X56957619Y-2134800D01*
X56886666Y-2063371D01*
X56815714Y-1920514D01*
X56815714Y-1634800D01*
X56886666Y-1491942D01*
X58854047Y-3563371D02*
X60344047Y-3206228D01*
X59279761Y-2920514D01*
X60344047Y-2634800D01*
X58854047Y-2277657D01*
X60344047Y-1706228D02*
X59350714Y-1706228D01*
X59634523Y-1706228D02*
X59492619Y-1634800D01*
X59421666Y-1563371D01*
X59350714Y-1420514D01*
X59350714Y-1277657D01*
X62879047Y-2777657D02*
X62169523Y-3277657D01*
X62879047Y-3634800D02*
X61389047Y-3634800D01*
X61389047Y-3063371D01*
X61460000Y-2920514D01*
X61530952Y-2849085D01*
X61672857Y-2777657D01*
X61885714Y-2777657D01*
X62027619Y-2849085D01*
X62098571Y-2920514D01*
X62169523Y-3063371D01*
X62169523Y-3634800D01*
X62879047Y-1920514D02*
X62808095Y-2063371D01*
X62737142Y-2134800D01*
X62595238Y-2206228D01*
X62169523Y-2206228D01*
X62027619Y-2134800D01*
X61956666Y-2063371D01*
X61885714Y-1920514D01*
X61885714Y-1706228D01*
X61956666Y-1563371D01*
X62027619Y-1491942D01*
X62169523Y-1420514D01*
X62595238Y-1420514D01*
X62737142Y-1491942D01*
X62808095Y-1563371D01*
X62879047Y-1706228D01*
X62879047Y-1920514D01*
X65414047Y-6134800D02*
X63924047Y-6134800D01*
X63924047Y-5134800D02*
X63924047Y-4849085D01*
X63995000Y-4706228D01*
X64136904Y-4563371D01*
X64420714Y-4491942D01*
X64917380Y-4491942D01*
X65201190Y-4563371D01*
X65343095Y-4706228D01*
X65414047Y-4849085D01*
X65414047Y-5134800D01*
X65343095Y-5277657D01*
X65201190Y-5420514D01*
X64917380Y-5491942D01*
X64420714Y-5491942D01*
X64136904Y-5420514D01*
X63995000Y-5277657D01*
X63924047Y-5134800D01*
X65414047Y-2991942D02*
X64704523Y-3491942D01*
X65414047Y-3849085D02*
X63924047Y-3849085D01*
X63924047Y-3277657D01*
X63995000Y-3134800D01*
X64065952Y-3063371D01*
X64207857Y-2991942D01*
X64420714Y-2991942D01*
X64562619Y-3063371D01*
X64633571Y-3134800D01*
X64704523Y-3277657D01*
X64704523Y-3849085D01*
X65555952Y-1349085D02*
X65485000Y-1491942D01*
X65343095Y-1634800D01*
X65130238Y-1849085D01*
X65059285Y-1991942D01*
X65059285Y-2134800D01*
X65414047Y-2063371D02*
X65343095Y-2206228D01*
X65201190Y-2349085D01*
X64917380Y-2420514D01*
X64420714Y-2420514D01*
X64136904Y-2349085D01*
X63995000Y-2206228D01*
X63924047Y-2063371D01*
X63924047Y-1777657D01*
X63995000Y-1634800D01*
X64136904Y-1491942D01*
X64420714Y-1420514D01*
X64917380Y-1420514D01*
X65201190Y-1491942D01*
X65343095Y-1634800D01*
X65414047Y-1777657D01*
X65414047Y-2063371D01*
X67949047Y-3706228D02*
X66459047Y-3706228D01*
X66459047Y-3349085D01*
X66530000Y-3134800D01*
X66671904Y-2991942D01*
X66813809Y-2920514D01*
X67097619Y-2849085D01*
X67310476Y-2849085D01*
X67594285Y-2920514D01*
X67736190Y-2991942D01*
X67878095Y-3134800D01*
X67949047Y-3349085D01*
X67949047Y-3706228D01*
X66459047Y-1920514D02*
X66459047Y-1777657D01*
X66530000Y-1634800D01*
X66600952Y-1563371D01*
X66742857Y-1491942D01*
X67026666Y-1420514D01*
X67381428Y-1420514D01*
X67665238Y-1491942D01*
X67807142Y-1563371D01*
X67878095Y-1634800D01*
X67949047Y-1777657D01*
X67949047Y-1920514D01*
X67878095Y-2063371D01*
X67807142Y-2134800D01*
X67665238Y-2206228D01*
X67381428Y-2277657D01*
X67026666Y-2277657D01*
X66742857Y-2206228D01*
X66600952Y-2134800D01*
X66530000Y-2063371D01*
X66459047Y-1920514D01*
X70484047Y-3706228D02*
X68994047Y-3706228D01*
X68994047Y-3349085D01*
X69065000Y-3134800D01*
X69206904Y-2991942D01*
X69348809Y-2920514D01*
X69632619Y-2849085D01*
X69845476Y-2849085D01*
X70129285Y-2920514D01*
X70271190Y-2991942D01*
X70413095Y-3134800D01*
X70484047Y-3349085D01*
X70484047Y-3706228D01*
X70484047Y-1420514D02*
X70484047Y-2277657D01*
X70484047Y-1849085D02*
X68994047Y-1849085D01*
X69206904Y-1991942D01*
X69348809Y-2134800D01*
X69419761Y-2277657D01*
X73019047Y-3706228D02*
X71529047Y-3706228D01*
X71529047Y-3349085D01*
X71600000Y-3134800D01*
X71741904Y-2991942D01*
X71883809Y-2920514D01*
X72167619Y-2849085D01*
X72380476Y-2849085D01*
X72664285Y-2920514D01*
X72806190Y-2991942D01*
X72948095Y-3134800D01*
X73019047Y-3349085D01*
X73019047Y-3706228D01*
X71670952Y-2277657D02*
X71600000Y-2206228D01*
X71529047Y-2063371D01*
X71529047Y-1706228D01*
X71600000Y-1563371D01*
X71670952Y-1491942D01*
X71812857Y-1420514D01*
X71954761Y-1420514D01*
X72167619Y-1491942D01*
X73019047Y-2349085D01*
X73019047Y-1420514D01*
X75554047Y-3706228D02*
X74064047Y-3706228D01*
X74064047Y-3349085D01*
X74135000Y-3134800D01*
X74276904Y-2991942D01*
X74418809Y-2920514D01*
X74702619Y-2849085D01*
X74915476Y-2849085D01*
X75199285Y-2920514D01*
X75341190Y-2991942D01*
X75483095Y-3134800D01*
X75554047Y-3349085D01*
X75554047Y-3706228D01*
X74064047Y-2349085D02*
X74064047Y-1420514D01*
X74631666Y-1920514D01*
X74631666Y-1706228D01*
X74702619Y-1563371D01*
X74773571Y-1491942D01*
X74915476Y-1420514D01*
X75270238Y-1420514D01*
X75412142Y-1491942D01*
X75483095Y-1563371D01*
X75554047Y-1706228D01*
X75554047Y-2134800D01*
X75483095Y-2277657D01*
X75412142Y-2349085D01*
X78089047Y-3706228D02*
X76599047Y-3706228D01*
X76599047Y-3349085D01*
X76670000Y-3134800D01*
X76811904Y-2991942D01*
X76953809Y-2920514D01*
X77237619Y-2849085D01*
X77450476Y-2849085D01*
X77734285Y-2920514D01*
X77876190Y-2991942D01*
X78018095Y-3134800D01*
X78089047Y-3349085D01*
X78089047Y-3706228D01*
X77095714Y-1563371D02*
X78089047Y-1563371D01*
X76528095Y-1920514D02*
X77592380Y-2277657D01*
X77592380Y-1349085D01*
X80624047Y-3706228D02*
X79134047Y-3706228D01*
X79134047Y-3349085D01*
X79205000Y-3134800D01*
X79346904Y-2991942D01*
X79488809Y-2920514D01*
X79772619Y-2849085D01*
X79985476Y-2849085D01*
X80269285Y-2920514D01*
X80411190Y-2991942D01*
X80553095Y-3134800D01*
X80624047Y-3349085D01*
X80624047Y-3706228D01*
X79134047Y-1491942D02*
X79134047Y-2206228D01*
X79843571Y-2277657D01*
X79772619Y-2206228D01*
X79701666Y-2063371D01*
X79701666Y-1706228D01*
X79772619Y-1563371D01*
X79843571Y-1491942D01*
X79985476Y-1420514D01*
X80340238Y-1420514D01*
X80482142Y-1491942D01*
X80553095Y-1563371D01*
X80624047Y-1706228D01*
X80624047Y-2063371D01*
X80553095Y-2206228D01*
X80482142Y-2277657D01*
X83159047Y-3706228D02*
X81669047Y-3706228D01*
X81669047Y-3349085D01*
X81740000Y-3134800D01*
X81881904Y-2991942D01*
X82023809Y-2920514D01*
X82307619Y-2849085D01*
X82520476Y-2849085D01*
X82804285Y-2920514D01*
X82946190Y-2991942D01*
X83088095Y-3134800D01*
X83159047Y-3349085D01*
X83159047Y-3706228D01*
X81669047Y-1563371D02*
X81669047Y-1849085D01*
X81740000Y-1991942D01*
X81810952Y-2063371D01*
X82023809Y-2206228D01*
X82307619Y-2277657D01*
X82875238Y-2277657D01*
X83017142Y-2206228D01*
X83088095Y-2134800D01*
X83159047Y-1991942D01*
X83159047Y-1706228D01*
X83088095Y-1563371D01*
X83017142Y-1491942D01*
X82875238Y-1420514D01*
X82520476Y-1420514D01*
X82378571Y-1491942D01*
X82307619Y-1563371D01*
X82236666Y-1706228D01*
X82236666Y-1991942D01*
X82307619Y-2134800D01*
X82378571Y-2206228D01*
X82520476Y-2277657D01*
X85694047Y-3706228D02*
X84204047Y-3706228D01*
X84204047Y-3349085D01*
X84275000Y-3134800D01*
X84416904Y-2991942D01*
X84558809Y-2920514D01*
X84842619Y-2849085D01*
X85055476Y-2849085D01*
X85339285Y-2920514D01*
X85481190Y-2991942D01*
X85623095Y-3134800D01*
X85694047Y-3349085D01*
X85694047Y-3706228D01*
X84204047Y-2349085D02*
X84204047Y-1349085D01*
X85694047Y-1991942D01*
X86739047Y-3349085D02*
X86739047Y-2491942D01*
X88229047Y-2920514D02*
X86739047Y-2920514D01*
X88229047Y-2134800D02*
X87235714Y-1349085D01*
X87235714Y-2134800D02*
X88229047Y-1349085D01*
X90764047Y-2634800D02*
X90054523Y-3134800D01*
X90764047Y-3491942D02*
X89274047Y-3491942D01*
X89274047Y-2920514D01*
X89345000Y-2777657D01*
X89415952Y-2706228D01*
X89557857Y-2634800D01*
X89770714Y-2634800D01*
X89912619Y-2706228D01*
X89983571Y-2777657D01*
X90054523Y-2920514D01*
X90054523Y-3491942D01*
X90764047Y-2134800D02*
X89770714Y-1349085D01*
X89770714Y-2134800D02*
X90764047Y-1349085D01*
X91809047Y-6706228D02*
X93015238Y-6706228D01*
X93157142Y-6634800D01*
X93228095Y-6563371D01*
X93299047Y-6420514D01*
X93299047Y-6134800D01*
X93228095Y-5991942D01*
X93157142Y-5920514D01*
X93015238Y-5849085D01*
X91809047Y-5849085D01*
X93228095Y-5206228D02*
X93299047Y-4991942D01*
X93299047Y-4634800D01*
X93228095Y-4491942D01*
X93157142Y-4420514D01*
X93015238Y-4349085D01*
X92873333Y-4349085D01*
X92731428Y-4420514D01*
X92660476Y-4491942D01*
X92589523Y-4634800D01*
X92518571Y-4920514D01*
X92447619Y-5063371D01*
X92376666Y-5134800D01*
X92234761Y-5206228D01*
X92092857Y-5206228D01*
X91950952Y-5134800D01*
X91880000Y-5063371D01*
X91809047Y-4920514D01*
X91809047Y-4563371D01*
X91880000Y-4349085D01*
X93299047Y-2849085D02*
X92589523Y-3349085D01*
X93299047Y-3706228D02*
X91809047Y-3706228D01*
X91809047Y-3134800D01*
X91880000Y-2991942D01*
X91950952Y-2920514D01*
X92092857Y-2849085D01*
X92305714Y-2849085D01*
X92447619Y-2920514D01*
X92518571Y-2991942D01*
X92589523Y-3134800D01*
X92589523Y-3706228D01*
X93299047Y-1420514D02*
X93299047Y-2277657D01*
X93299047Y-1849085D02*
X91809047Y-1849085D01*
X92021904Y-1991942D01*
X92163809Y-2134800D01*
X92234761Y-2277657D01*
X94344047Y-6706228D02*
X95550238Y-6706228D01*
X95692142Y-6634800D01*
X95763095Y-6563371D01*
X95834047Y-6420514D01*
X95834047Y-6134800D01*
X95763095Y-5991942D01*
X95692142Y-5920514D01*
X95550238Y-5849085D01*
X94344047Y-5849085D01*
X95763095Y-5206228D02*
X95834047Y-4991942D01*
X95834047Y-4634800D01*
X95763095Y-4491942D01*
X95692142Y-4420514D01*
X95550238Y-4349085D01*
X95408333Y-4349085D01*
X95266428Y-4420514D01*
X95195476Y-4491942D01*
X95124523Y-4634800D01*
X95053571Y-4920514D01*
X94982619Y-5063371D01*
X94911666Y-5134800D01*
X94769761Y-5206228D01*
X94627857Y-5206228D01*
X94485952Y-5134800D01*
X94415000Y-5063371D01*
X94344047Y-4920514D01*
X94344047Y-4563371D01*
X94415000Y-4349085D01*
X95834047Y-2849085D02*
X95124523Y-3349085D01*
X95834047Y-3706228D02*
X94344047Y-3706228D01*
X94344047Y-3134800D01*
X94415000Y-2991942D01*
X94485952Y-2920514D01*
X94627857Y-2849085D01*
X94840714Y-2849085D01*
X94982619Y-2920514D01*
X95053571Y-2991942D01*
X95124523Y-3134800D01*
X95124523Y-3706228D01*
X94485952Y-2277657D02*
X94415000Y-2206228D01*
X94344047Y-2063371D01*
X94344047Y-1706228D01*
X94415000Y-1563371D01*
X94485952Y-1491942D01*
X94627857Y-1420514D01*
X94769761Y-1420514D01*
X94982619Y-1491942D01*
X95834047Y-2349085D01*
X95834047Y-1420514D01*
X96879047Y-6706228D02*
X98085238Y-6706228D01*
X98227142Y-6634800D01*
X98298095Y-6563371D01*
X98369047Y-6420514D01*
X98369047Y-6134800D01*
X98298095Y-5991942D01*
X98227142Y-5920514D01*
X98085238Y-5849085D01*
X96879047Y-5849085D01*
X98298095Y-5206228D02*
X98369047Y-4991942D01*
X98369047Y-4634800D01*
X98298095Y-4491942D01*
X98227142Y-4420514D01*
X98085238Y-4349085D01*
X97943333Y-4349085D01*
X97801428Y-4420514D01*
X97730476Y-4491942D01*
X97659523Y-4634800D01*
X97588571Y-4920514D01*
X97517619Y-5063371D01*
X97446666Y-5134800D01*
X97304761Y-5206228D01*
X97162857Y-5206228D01*
X97020952Y-5134800D01*
X96950000Y-5063371D01*
X96879047Y-4920514D01*
X96879047Y-4563371D01*
X96950000Y-4349085D01*
X98369047Y-2849085D02*
X97659523Y-3349085D01*
X98369047Y-3706228D02*
X96879047Y-3706228D01*
X96879047Y-3134800D01*
X96950000Y-2991942D01*
X97020952Y-2920514D01*
X97162857Y-2849085D01*
X97375714Y-2849085D01*
X97517619Y-2920514D01*
X97588571Y-2991942D01*
X97659523Y-3134800D01*
X97659523Y-3706228D01*
X96879047Y-2349085D02*
X96879047Y-1420514D01*
X97446666Y-1920514D01*
X97446666Y-1706228D01*
X97517619Y-1563371D01*
X97588571Y-1491942D01*
X97730476Y-1420514D01*
X98085238Y-1420514D01*
X98227142Y-1491942D01*
X98298095Y-1563371D01*
X98369047Y-1706228D01*
X98369047Y-2134800D01*
X98298095Y-2277657D01*
X98227142Y-2349085D01*
D12*
X2743200Y10345420D02*
X2743200Y233680D01*
X1173480Y10345420D02*
X2743200Y10345420D01*
X-7620Y9164320D02*
X1173480Y10345420D01*
X-7620Y233680D02*
X-7620Y9164320D01*
D10*
X2207651Y4049735D02*
X707651Y4049735D01*
X707651Y4621163D01*
X779080Y4764020D01*
X850508Y4835449D01*
X993365Y4906878D01*
X1207651Y4906878D01*
X1350508Y4835449D01*
X1421937Y4764020D01*
X1493365Y4621163D01*
X1493365Y4049735D01*
X2207651Y5549735D02*
X1207651Y5549735D01*
X707651Y5549735D02*
X779080Y5478306D01*
X850508Y5549735D01*
X779080Y5621163D01*
X707651Y5549735D01*
X850508Y5549735D01*
X1207651Y6264020D02*
X2207651Y6264020D01*
X1350508Y6264020D02*
X1279080Y6335449D01*
X1207651Y6478306D01*
X1207651Y6692592D01*
X1279080Y6835449D01*
X1421937Y6906878D01*
X2207651Y6906878D01*
X2207651Y9549735D02*
X2207651Y8692592D01*
X2207651Y9121163D02*
X707651Y9121163D01*
X921937Y8978306D01*
X1064794Y8835449D01*
X1136222Y8692592D01*
D13*
%TO.C,J1*%
X-60000Y270200D02*
X-60000Y1600200D01*
X1270000Y270200D02*
X-60000Y270200D01*
X2540000Y270200D02*
X2540000Y2930200D01*
X2540000Y2930200D02*
X99120000Y2930200D01*
X2540000Y270200D02*
X99120000Y270200D01*
X99120000Y270200D02*
X99120000Y2930200D01*
%TO.C,U5*%
X64710000Y23460200D02*
X64710000Y22210200D01*
X64710000Y22210200D02*
X82610000Y22210200D01*
X82610000Y22210200D02*
X82610000Y26710200D01*
X82610000Y26710200D02*
X64710000Y26710200D01*
X64710000Y26710200D02*
X64710000Y25460200D01*
X64710000Y25460200D02*
G75*
G02*
X64710000Y23460200I0J-1000000D01*
G01*
%TO.C,U1*%
X10100000Y32350200D02*
X10100000Y27290200D01*
X10100000Y27290200D02*
X50860000Y27290200D01*
X50860000Y27290200D02*
X50860000Y39410200D01*
X50860000Y39410200D02*
X10100000Y39410200D01*
X10100000Y39410200D02*
X10100000Y34350200D01*
X10100000Y34350200D02*
G75*
G02*
X10100000Y32350200I0J-1000000D01*
G01*
%TO.C,U4*%
X63440000Y12740200D02*
X63440000Y11490200D01*
X83880000Y12740200D02*
X63440000Y12740200D01*
X83880000Y8240200D02*
X83880000Y12740200D01*
X63440000Y8240200D02*
X83880000Y8240200D01*
X63440000Y9490200D02*
X63440000Y8240200D01*
X63440000Y11490200D02*
G75*
G02*
X63440000Y9490200I0J-1000000D01*
G01*
%TO.C,U3*%
X60900000Y40680200D02*
X60900000Y39430200D01*
X86420000Y40680200D02*
X60900000Y40680200D01*
X86420000Y36180200D02*
X86420000Y40680200D01*
X60900000Y36180200D02*
X86420000Y36180200D01*
X60900000Y37430200D02*
X60900000Y36180200D01*
X60900000Y39430200D02*
G75*
G02*
X60900000Y37430200I0J-1000000D01*
G01*
%TO.C,U2*%
X10100000Y19090200D02*
X10100000Y14030200D01*
X50860000Y19090200D02*
X10100000Y19090200D01*
X50860000Y6970200D02*
X50860000Y19090200D01*
X10100000Y6970200D02*
X50860000Y6970200D01*
X10100000Y12030200D02*
X10100000Y6970200D01*
X10100000Y14030200D02*
G75*
G02*
X10100000Y12030200I0J-1000000D01*
G01*
%TO.C,C5*%
X67919000Y31730200D02*
X66661000Y31730200D01*
X67919000Y29890200D02*
X66661000Y29890200D01*
%TO.C,C4*%
X66649000Y17760200D02*
X65391000Y17760200D01*
X66649000Y15920200D02*
X65391000Y15920200D01*
%TO.C,C3*%
X64109000Y45700200D02*
X62851000Y45700200D01*
X64109000Y43860200D02*
X62851000Y43860200D01*
%TO.C,C2*%
X7970000Y20029200D02*
X7970000Y18771200D01*
X9810000Y20029200D02*
X9810000Y18771200D01*
%TO.C,C1*%
X7970000Y40349200D02*
X7970000Y39091200D01*
X9810000Y40349200D02*
X9810000Y39091200D01*
%TD*%
D14*
%TO.C,*%
X6630000Y33350200D02*
G75*
G03*
X6630000Y33350200I-1550000J0D01*
G01*
%TD*%
%TO.C,U5*%
D11*
X63162380Y23698296D02*
X63971904Y23698296D01*
X64067142Y23745915D01*
X64114761Y23793534D01*
X64162380Y23888772D01*
X64162380Y24079248D01*
X64114761Y24174486D01*
X64067142Y24222105D01*
X63971904Y24269724D01*
X63162380Y24269724D01*
X63162380Y25222105D02*
X63162380Y24745915D01*
X63638571Y24698296D01*
X63590952Y24745915D01*
X63543333Y24841153D01*
X63543333Y25079248D01*
X63590952Y25174486D01*
X63638571Y25222105D01*
X63733809Y25269724D01*
X63971904Y25269724D01*
X64067142Y25222105D01*
X64114761Y25174486D01*
X64162380Y25079248D01*
X64162380Y24841153D01*
X64114761Y24745915D01*
X64067142Y24698296D01*
X70493333Y25007820D02*
X71160000Y25007820D01*
X70731428Y24007820D01*
X71969523Y24674486D02*
X71969523Y24007820D01*
X71731428Y25055439D02*
X71493333Y24341153D01*
X72112380Y24341153D01*
X72493333Y24007820D02*
X72493333Y25007820D01*
X72493333Y24531629D02*
X73064761Y24531629D01*
X73064761Y24007820D02*
X73064761Y25007820D01*
X74112380Y24103058D02*
X74064761Y24055439D01*
X73921904Y24007820D01*
X73826666Y24007820D01*
X73683809Y24055439D01*
X73588571Y24150677D01*
X73540952Y24245915D01*
X73493333Y24436391D01*
X73493333Y24579248D01*
X73540952Y24769724D01*
X73588571Y24864962D01*
X73683809Y24960200D01*
X73826666Y25007820D01*
X73921904Y25007820D01*
X74064761Y24960200D01*
X74112380Y24912581D01*
X74398095Y25007820D02*
X74969523Y25007820D01*
X74683809Y24007820D02*
X74683809Y25007820D01*
X75207619Y25007820D02*
X75826666Y25007820D01*
X75493333Y24626867D01*
X75636190Y24626867D01*
X75731428Y24579248D01*
X75779047Y24531629D01*
X75826666Y24436391D01*
X75826666Y24198296D01*
X75779047Y24103058D01*
X75731428Y24055439D01*
X75636190Y24007820D01*
X75350476Y24007820D01*
X75255238Y24055439D01*
X75207619Y24103058D01*
X76207619Y24912581D02*
X76255238Y24960200D01*
X76350476Y25007820D01*
X76588571Y25007820D01*
X76683809Y24960200D01*
X76731428Y24912581D01*
X76779047Y24817343D01*
X76779047Y24722105D01*
X76731428Y24579248D01*
X76160000Y24007820D01*
X76779047Y24007820D01*
%TO.C,U1*%
X8552380Y32588296D02*
X9361904Y32588296D01*
X9457142Y32635915D01*
X9504761Y32683534D01*
X9552380Y32778772D01*
X9552380Y32969248D01*
X9504761Y33064486D01*
X9457142Y33112105D01*
X9361904Y33159724D01*
X8552380Y33159724D01*
X9552380Y34159724D02*
X9552380Y33588296D01*
X9552380Y33874010D02*
X8552380Y33874010D01*
X8695238Y33778772D01*
X8790476Y33683534D01*
X8838095Y33588296D01*
X36211428Y32945439D02*
X36354285Y32897820D01*
X36592380Y32897820D01*
X36687619Y32945439D01*
X36735238Y32993058D01*
X36782857Y33088296D01*
X36782857Y33183534D01*
X36735238Y33278772D01*
X36687619Y33326391D01*
X36592380Y33374010D01*
X36401904Y33421629D01*
X36306666Y33469248D01*
X36259047Y33516867D01*
X36211428Y33612105D01*
X36211428Y33707343D01*
X36259047Y33802581D01*
X36306666Y33850200D01*
X36401904Y33897820D01*
X36640000Y33897820D01*
X36782857Y33850200D01*
X37163809Y32945439D02*
X37306666Y32897820D01*
X37544761Y32897820D01*
X37640000Y32945439D01*
X37687619Y32993058D01*
X37735238Y33088296D01*
X37735238Y33183534D01*
X37687619Y33278772D01*
X37640000Y33326391D01*
X37544761Y33374010D01*
X37354285Y33421629D01*
X37259047Y33469248D01*
X37211428Y33516867D01*
X37163809Y33612105D01*
X37163809Y33707343D01*
X37211428Y33802581D01*
X37259047Y33850200D01*
X37354285Y33897820D01*
X37592380Y33897820D01*
X37735238Y33850200D01*
X38020952Y33897820D02*
X38592380Y33897820D01*
X38306666Y32897820D02*
X38306666Y33897820D01*
X38830476Y33897820D02*
X39449523Y33897820D01*
X39116190Y33516867D01*
X39259047Y33516867D01*
X39354285Y33469248D01*
X39401904Y33421629D01*
X39449523Y33326391D01*
X39449523Y33088296D01*
X39401904Y32993058D01*
X39354285Y32945439D01*
X39259047Y32897820D01*
X38973333Y32897820D01*
X38878095Y32945439D01*
X38830476Y32993058D01*
X39925714Y32897820D02*
X40116190Y32897820D01*
X40211428Y32945439D01*
X40259047Y32993058D01*
X40354285Y33135915D01*
X40401904Y33326391D01*
X40401904Y33707343D01*
X40354285Y33802581D01*
X40306666Y33850200D01*
X40211428Y33897820D01*
X40020952Y33897820D01*
X39925714Y33850200D01*
X39878095Y33802581D01*
X39830476Y33707343D01*
X39830476Y33469248D01*
X39878095Y33374010D01*
X39925714Y33326391D01*
X40020952Y33278772D01*
X40211428Y33278772D01*
X40306666Y33326391D01*
X40354285Y33374010D01*
X40401904Y33469248D01*
X40782857Y32945439D02*
X40925714Y32897820D01*
X41163809Y32897820D01*
X41259047Y32945439D01*
X41306666Y32993058D01*
X41354285Y33088296D01*
X41354285Y33183534D01*
X41306666Y33278772D01*
X41259047Y33326391D01*
X41163809Y33374010D01*
X40973333Y33421629D01*
X40878095Y33469248D01*
X40830476Y33516867D01*
X40782857Y33612105D01*
X40782857Y33707343D01*
X40830476Y33802581D01*
X40878095Y33850200D01*
X40973333Y33897820D01*
X41211428Y33897820D01*
X41354285Y33850200D01*
X42116190Y33421629D02*
X41782857Y33421629D01*
X41782857Y32897820D02*
X41782857Y33897820D01*
X42259047Y33897820D01*
X42830476Y33897820D02*
X42925714Y33897820D01*
X43020952Y33850200D01*
X43068571Y33802581D01*
X43116190Y33707343D01*
X43163809Y33516867D01*
X43163809Y33278772D01*
X43116190Y33088296D01*
X43068571Y32993058D01*
X43020952Y32945439D01*
X42925714Y32897820D01*
X42830476Y32897820D01*
X42735238Y32945439D01*
X42687619Y32993058D01*
X42640000Y33088296D01*
X42592380Y33278772D01*
X42592380Y33516867D01*
X42640000Y33707343D01*
X42687619Y33802581D01*
X42735238Y33850200D01*
X42830476Y33897820D01*
X44020952Y33564486D02*
X44020952Y32897820D01*
X43782857Y33945439D02*
X43544761Y33231153D01*
X44163809Y33231153D01*
X44735238Y33897820D02*
X44830476Y33897820D01*
X44925714Y33850200D01*
X44973333Y33802581D01*
X45020952Y33707343D01*
X45068571Y33516867D01*
X45068571Y33278772D01*
X45020952Y33088296D01*
X44973333Y32993058D01*
X44925714Y32945439D01*
X44830476Y32897820D01*
X44735238Y32897820D01*
X44640000Y32945439D01*
X44592380Y32993058D01*
X44544761Y33088296D01*
X44497142Y33278772D01*
X44497142Y33516867D01*
X44544761Y33707343D01*
X44592380Y33802581D01*
X44640000Y33850200D01*
X44735238Y33897820D01*
%TO.C,U4*%
X61892380Y9728296D02*
X62701904Y9728296D01*
X62797142Y9775915D01*
X62844761Y9823534D01*
X62892380Y9918772D01*
X62892380Y10109248D01*
X62844761Y10204486D01*
X62797142Y10252105D01*
X62701904Y10299724D01*
X61892380Y10299724D01*
X62225714Y11204486D02*
X62892380Y11204486D01*
X61844761Y10966391D02*
X62559047Y10728296D01*
X62559047Y11347343D01*
X70017142Y11037820D02*
X70683809Y11037820D01*
X70255238Y10037820D01*
X71493333Y10704486D02*
X71493333Y10037820D01*
X71255238Y11085439D02*
X71017142Y10371153D01*
X71636190Y10371153D01*
X72017142Y10037820D02*
X72017142Y11037820D01*
X72017142Y10561629D02*
X72588571Y10561629D01*
X72588571Y10037820D02*
X72588571Y11037820D01*
X73636190Y10133058D02*
X73588571Y10085439D01*
X73445714Y10037820D01*
X73350476Y10037820D01*
X73207619Y10085439D01*
X73112380Y10180677D01*
X73064761Y10275915D01*
X73017142Y10466391D01*
X73017142Y10609248D01*
X73064761Y10799724D01*
X73112380Y10894962D01*
X73207619Y10990200D01*
X73350476Y11037820D01*
X73445714Y11037820D01*
X73588571Y10990200D01*
X73636190Y10942581D01*
X73921904Y11037820D02*
X74493333Y11037820D01*
X74207619Y10037820D02*
X74207619Y11037820D01*
X75350476Y10037820D02*
X74779047Y10037820D01*
X75064761Y10037820D02*
X75064761Y11037820D01*
X74969523Y10894962D01*
X74874285Y10799724D01*
X74779047Y10752105D01*
X75683809Y11037820D02*
X76350476Y11037820D01*
X75921904Y10037820D01*
X77160000Y10704486D02*
X77160000Y10037820D01*
X76921904Y11085439D02*
X76683809Y10371153D01*
X77302857Y10371153D01*
%TO.C,U3*%
X59352380Y37668296D02*
X60161904Y37668296D01*
X60257142Y37715915D01*
X60304761Y37763534D01*
X60352380Y37858772D01*
X60352380Y38049248D01*
X60304761Y38144486D01*
X60257142Y38192105D01*
X60161904Y38239724D01*
X59352380Y38239724D01*
X59352380Y38620677D02*
X59352380Y39239724D01*
X59733333Y38906391D01*
X59733333Y39049248D01*
X59780952Y39144486D01*
X59828571Y39192105D01*
X59923809Y39239724D01*
X60161904Y39239724D01*
X60257142Y39192105D01*
X60304761Y39144486D01*
X60352380Y39049248D01*
X60352380Y38763534D01*
X60304761Y38668296D01*
X60257142Y38620677D01*
X70017142Y38977820D02*
X70683809Y38977820D01*
X70255238Y37977820D01*
X71493333Y38644486D02*
X71493333Y37977820D01*
X71255238Y39025439D02*
X71017142Y38311153D01*
X71636190Y38311153D01*
X72017142Y37977820D02*
X72017142Y38977820D01*
X72017142Y38501629D02*
X72588571Y38501629D01*
X72588571Y37977820D02*
X72588571Y38977820D01*
X73636190Y38073058D02*
X73588571Y38025439D01*
X73445714Y37977820D01*
X73350476Y37977820D01*
X73207619Y38025439D01*
X73112380Y38120677D01*
X73064761Y38215915D01*
X73017142Y38406391D01*
X73017142Y38549248D01*
X73064761Y38739724D01*
X73112380Y38834962D01*
X73207619Y38930200D01*
X73350476Y38977820D01*
X73445714Y38977820D01*
X73588571Y38930200D01*
X73636190Y38882581D01*
X73921904Y38977820D02*
X74493333Y38977820D01*
X74207619Y37977820D02*
X74207619Y38977820D01*
X75255238Y38977820D02*
X75064761Y38977820D01*
X74969523Y38930200D01*
X74921904Y38882581D01*
X74826666Y38739724D01*
X74779047Y38549248D01*
X74779047Y38168296D01*
X74826666Y38073058D01*
X74874285Y38025439D01*
X74969523Y37977820D01*
X75160000Y37977820D01*
X75255238Y38025439D01*
X75302857Y38073058D01*
X75350476Y38168296D01*
X75350476Y38406391D01*
X75302857Y38501629D01*
X75255238Y38549248D01*
X75160000Y38596867D01*
X74969523Y38596867D01*
X74874285Y38549248D01*
X74826666Y38501629D01*
X74779047Y38406391D01*
X75921904Y38549248D02*
X75826666Y38596867D01*
X75779047Y38644486D01*
X75731428Y38739724D01*
X75731428Y38787343D01*
X75779047Y38882581D01*
X75826666Y38930200D01*
X75921904Y38977820D01*
X76112380Y38977820D01*
X76207619Y38930200D01*
X76255238Y38882581D01*
X76302857Y38787343D01*
X76302857Y38739724D01*
X76255238Y38644486D01*
X76207619Y38596867D01*
X76112380Y38549248D01*
X75921904Y38549248D01*
X75826666Y38501629D01*
X75779047Y38454010D01*
X75731428Y38358772D01*
X75731428Y38168296D01*
X75779047Y38073058D01*
X75826666Y38025439D01*
X75921904Y37977820D01*
X76112380Y37977820D01*
X76207619Y38025439D01*
X76255238Y38073058D01*
X76302857Y38168296D01*
X76302857Y38358772D01*
X76255238Y38454010D01*
X76207619Y38501629D01*
X76112380Y38549248D01*
X76874285Y38549248D02*
X76779047Y38596867D01*
X76731428Y38644486D01*
X76683809Y38739724D01*
X76683809Y38787343D01*
X76731428Y38882581D01*
X76779047Y38930200D01*
X76874285Y38977820D01*
X77064761Y38977820D01*
X77160000Y38930200D01*
X77207619Y38882581D01*
X77255238Y38787343D01*
X77255238Y38739724D01*
X77207619Y38644486D01*
X77160000Y38596867D01*
X77064761Y38549248D01*
X76874285Y38549248D01*
X76779047Y38501629D01*
X76731428Y38454010D01*
X76683809Y38358772D01*
X76683809Y38168296D01*
X76731428Y38073058D01*
X76779047Y38025439D01*
X76874285Y37977820D01*
X77064761Y37977820D01*
X77160000Y38025439D01*
X77207619Y38073058D01*
X77255238Y38168296D01*
X77255238Y38358772D01*
X77207619Y38454010D01*
X77160000Y38501629D01*
X77064761Y38549248D01*
%TO.C,U2*%
X8552380Y12268296D02*
X9361904Y12268296D01*
X9457142Y12315915D01*
X9504761Y12363534D01*
X9552380Y12458772D01*
X9552380Y12649248D01*
X9504761Y12744486D01*
X9457142Y12792105D01*
X9361904Y12839724D01*
X8552380Y12839724D01*
X8647619Y13268296D02*
X8600000Y13315915D01*
X8552380Y13411153D01*
X8552380Y13649248D01*
X8600000Y13744486D01*
X8647619Y13792105D01*
X8742857Y13839724D01*
X8838095Y13839724D01*
X8980952Y13792105D01*
X9552380Y13220677D01*
X9552380Y13839724D01*
X37044761Y12863534D02*
X37520952Y12863534D01*
X36949523Y12577820D02*
X37282857Y13577820D01*
X37616190Y12577820D01*
X37901904Y12625439D02*
X38044761Y12577820D01*
X38282857Y12577820D01*
X38378095Y12625439D01*
X38425714Y12673058D01*
X38473333Y12768296D01*
X38473333Y12863534D01*
X38425714Y12958772D01*
X38378095Y13006391D01*
X38282857Y13054010D01*
X38092380Y13101629D01*
X37997142Y13149248D01*
X37949523Y13196867D01*
X37901904Y13292105D01*
X37901904Y13387343D01*
X37949523Y13482581D01*
X37997142Y13530200D01*
X38092380Y13577820D01*
X38330476Y13577820D01*
X38473333Y13530200D01*
X39330476Y13577820D02*
X39140000Y13577820D01*
X39044761Y13530200D01*
X38997142Y13482581D01*
X38901904Y13339724D01*
X38854285Y13149248D01*
X38854285Y12768296D01*
X38901904Y12673058D01*
X38949523Y12625439D01*
X39044761Y12577820D01*
X39235238Y12577820D01*
X39330476Y12625439D01*
X39378095Y12673058D01*
X39425714Y12768296D01*
X39425714Y13006391D01*
X39378095Y13101629D01*
X39330476Y13149248D01*
X39235238Y13196867D01*
X39044761Y13196867D01*
X38949523Y13149248D01*
X38901904Y13101629D01*
X38854285Y13006391D01*
X40425714Y12673058D02*
X40378095Y12625439D01*
X40235238Y12577820D01*
X40140000Y12577820D01*
X39997142Y12625439D01*
X39901904Y12720677D01*
X39854285Y12815915D01*
X39806666Y13006391D01*
X39806666Y13149248D01*
X39854285Y13339724D01*
X39901904Y13434962D01*
X39997142Y13530200D01*
X40140000Y13577820D01*
X40235238Y13577820D01*
X40378095Y13530200D01*
X40425714Y13482581D01*
X41378095Y12577820D02*
X40806666Y12577820D01*
X41092380Y12577820D02*
X41092380Y13577820D01*
X40997142Y13434962D01*
X40901904Y13339724D01*
X40806666Y13292105D01*
X41997142Y13577820D02*
X42092380Y13577820D01*
X42187619Y13530200D01*
X42235238Y13482581D01*
X42282857Y13387343D01*
X42330476Y13196867D01*
X42330476Y12958772D01*
X42282857Y12768296D01*
X42235238Y12673058D01*
X42187619Y12625439D01*
X42092380Y12577820D01*
X41997142Y12577820D01*
X41901904Y12625439D01*
X41854285Y12673058D01*
X41806666Y12768296D01*
X41759047Y12958772D01*
X41759047Y13196867D01*
X41806666Y13387343D01*
X41854285Y13482581D01*
X41901904Y13530200D01*
X41997142Y13577820D01*
X42949523Y13577820D02*
X43044761Y13577820D01*
X43140000Y13530200D01*
X43187619Y13482581D01*
X43235238Y13387343D01*
X43282857Y13196867D01*
X43282857Y12958772D01*
X43235238Y12768296D01*
X43187619Y12673058D01*
X43140000Y12625439D01*
X43044761Y12577820D01*
X42949523Y12577820D01*
X42854285Y12625439D01*
X42806666Y12673058D01*
X42759047Y12768296D01*
X42711428Y12958772D01*
X42711428Y13196867D01*
X42759047Y13387343D01*
X42806666Y13482581D01*
X42854285Y13530200D01*
X42949523Y13577820D01*
X43854285Y13149248D02*
X43759047Y13196867D01*
X43711428Y13244486D01*
X43663809Y13339724D01*
X43663809Y13387343D01*
X43711428Y13482581D01*
X43759047Y13530200D01*
X43854285Y13577820D01*
X44044761Y13577820D01*
X44140000Y13530200D01*
X44187619Y13482581D01*
X44235238Y13387343D01*
X44235238Y13339724D01*
X44187619Y13244486D01*
X44140000Y13196867D01*
X44044761Y13149248D01*
X43854285Y13149248D01*
X43759047Y13101629D01*
X43711428Y13054010D01*
X43663809Y12958772D01*
X43663809Y12768296D01*
X43711428Y12673058D01*
X43759047Y12625439D01*
X43854285Y12577820D01*
X44044761Y12577820D01*
X44140000Y12625439D01*
X44187619Y12673058D01*
X44235238Y12768296D01*
X44235238Y12958772D01*
X44187619Y13054010D01*
X44140000Y13101629D01*
X44044761Y13149248D01*
%TO.C,C5*%
X64492142Y30643534D02*
X64539761Y30595915D01*
X64587380Y30453058D01*
X64587380Y30357820D01*
X64539761Y30214962D01*
X64444523Y30119724D01*
X64349285Y30072105D01*
X64158809Y30024486D01*
X64015952Y30024486D01*
X63825476Y30072105D01*
X63730238Y30119724D01*
X63635000Y30214962D01*
X63587380Y30357820D01*
X63587380Y30453058D01*
X63635000Y30595915D01*
X63682619Y30643534D01*
X63587380Y31548296D02*
X63587380Y31072105D01*
X64063571Y31024486D01*
X64015952Y31072105D01*
X63968333Y31167343D01*
X63968333Y31405439D01*
X64015952Y31500677D01*
X64063571Y31548296D01*
X64158809Y31595915D01*
X64396904Y31595915D01*
X64492142Y31548296D01*
X64539761Y31500677D01*
X64587380Y31405439D01*
X64587380Y31167343D01*
X64539761Y31072105D01*
X64492142Y31024486D01*
%TO.C,C4*%
X63222142Y16673534D02*
X63269761Y16625915D01*
X63317380Y16483058D01*
X63317380Y16387820D01*
X63269761Y16244962D01*
X63174523Y16149724D01*
X63079285Y16102105D01*
X62888809Y16054486D01*
X62745952Y16054486D01*
X62555476Y16102105D01*
X62460238Y16149724D01*
X62365000Y16244962D01*
X62317380Y16387820D01*
X62317380Y16483058D01*
X62365000Y16625915D01*
X62412619Y16673534D01*
X62650714Y17530677D02*
X63317380Y17530677D01*
X62269761Y17292581D02*
X62984047Y17054486D01*
X62984047Y17673534D01*
%TO.C,C3*%
X60682142Y44613534D02*
X60729761Y44565915D01*
X60777380Y44423058D01*
X60777380Y44327820D01*
X60729761Y44184962D01*
X60634523Y44089724D01*
X60539285Y44042105D01*
X60348809Y43994486D01*
X60205952Y43994486D01*
X60015476Y44042105D01*
X59920238Y44089724D01*
X59825000Y44184962D01*
X59777380Y44327820D01*
X59777380Y44423058D01*
X59825000Y44565915D01*
X59872619Y44613534D01*
X59777380Y44946867D02*
X59777380Y45565915D01*
X60158333Y45232581D01*
X60158333Y45375439D01*
X60205952Y45470677D01*
X60253571Y45518296D01*
X60348809Y45565915D01*
X60586904Y45565915D01*
X60682142Y45518296D01*
X60729761Y45470677D01*
X60777380Y45375439D01*
X60777380Y45089724D01*
X60729761Y44994486D01*
X60682142Y44946867D01*
%TO.C,C2*%
X7342142Y19213534D02*
X7389761Y19165915D01*
X7437380Y19023058D01*
X7437380Y18927820D01*
X7389761Y18784962D01*
X7294523Y18689724D01*
X7199285Y18642105D01*
X7008809Y18594486D01*
X6865952Y18594486D01*
X6675476Y18642105D01*
X6580238Y18689724D01*
X6485000Y18784962D01*
X6437380Y18927820D01*
X6437380Y19023058D01*
X6485000Y19165915D01*
X6532619Y19213534D01*
X6532619Y19594486D02*
X6485000Y19642105D01*
X6437380Y19737343D01*
X6437380Y19975439D01*
X6485000Y20070677D01*
X6532619Y20118296D01*
X6627857Y20165915D01*
X6723095Y20165915D01*
X6865952Y20118296D01*
X7437380Y19546867D01*
X7437380Y20165915D01*
%TO.C,C1*%
X7342142Y39533534D02*
X7389761Y39485915D01*
X7437380Y39343058D01*
X7437380Y39247820D01*
X7389761Y39104962D01*
X7294523Y39009724D01*
X7199285Y38962105D01*
X7008809Y38914486D01*
X6865952Y38914486D01*
X6675476Y38962105D01*
X6580238Y39009724D01*
X6485000Y39104962D01*
X6437380Y39247820D01*
X6437380Y39343058D01*
X6485000Y39485915D01*
X6532619Y39533534D01*
X7437380Y40485915D02*
X7437380Y39914486D01*
X7437380Y40200200D02*
X6437380Y40200200D01*
X6580238Y40104962D01*
X6675476Y40009724D01*
X6723095Y39914486D01*
%TD*%
M02*
