M48
; DRILL file {KiCad (5.1.9)-1} date 02/19/21 17:39:33
; FORMAT={-:-/ absolute / inch / decimal}
; #@! TF.CreationDate,2021-02-19T17:39:33-08:00
; #@! TF.GenerationSoftware,Kicad,Pcbnew,(5.1.9)-1
; #@! TF.FileFunction,Plated,1,2,PTH
FMAT,2
INCH
T1C0.0157
T2C0.0236
T3C0.0315
T4C0.0394
%
G90
G05
T1
X0.375Y0.338
X0.425Y0.613
X0.45Y0.313
X0.475Y0.713
X0.55Y0.638
X0.575Y1.513
X0.575Y1.138
X0.6Y1.338
X0.625Y0.663
X0.65Y0.338
X0.675Y1.163
X0.675Y0.888
X0.725Y0.688
X0.75Y1.763
X0.75Y0.313
X0.775Y1.738
X0.875Y1.513
X0.875Y0.738
X0.975Y1.488
X1.075Y1.463
X1.1Y1.138
X1.175Y1.438
X1.275Y1.413
X1.4Y1.138
X1.425Y1.113
X1.475Y1.388
X1.575Y1.363
X1.575Y0.463
X1.675Y0.438
X1.7Y0.338
X1.775Y0.288
X1.8Y0.363
X1.875Y0.313
X1.9Y0.388
X1.975Y0.413
X2.275Y1.113
X2.3Y1.338
X2.325Y0.138
X2.675Y0.338
X2.725Y1.013
X2.725Y0.638
X2.75Y0.463
X2.75Y0.363
X2.825Y0.938
X2.925Y0.388
X3.05Y0.413
X3.075Y0.438
X3.1Y0.463
X3.125Y0.188
X3.15Y0.163
X3.25Y0.363
T2
X1.95Y1.2505
X2.0125Y0.538
X2.075Y1.613
T3
X0.35Y1.613
X0.35Y1.5146
X0.35Y0.813
X0.35Y0.7146
X0.45Y1.613
X0.45Y1.013
X0.45Y0.813
X0.45Y0.213
X0.55Y1.613
X0.55Y1.013
X0.55Y0.813
X0.55Y0.213
X0.65Y1.613
X0.65Y1.013
X0.65Y0.813
X0.65Y0.213
X0.75Y1.613
X0.75Y1.013
X0.75Y0.813
X0.75Y0.213
X0.85Y1.613
X0.85Y1.013
X0.85Y0.813
X0.85Y0.213
X0.95Y1.613
X0.95Y1.013
X0.95Y0.813
X0.95Y0.213
X1.05Y1.613
X1.05Y1.013
X1.05Y0.813
X1.05Y0.213
X1.15Y1.613
X1.15Y1.013
X1.15Y0.813
X1.15Y0.213
X1.25Y1.613
X1.25Y1.013
X1.25Y0.813
X1.25Y0.213
X1.35Y1.613
X1.35Y1.013
X1.35Y0.813
X1.35Y0.213
X1.45Y1.613
X1.45Y1.013
X1.45Y0.813
X1.45Y0.213
X1.55Y1.613
X1.55Y1.013
X1.55Y0.813
X1.55Y0.213
X1.65Y1.613
X1.65Y1.013
X1.65Y0.813
X1.65Y0.213
X1.75Y1.613
X1.75Y1.013
X1.75Y0.813
X1.75Y0.213
X1.85Y1.613
X1.85Y1.013
X1.85Y0.813
X1.85Y0.213
X1.95Y1.613
X1.95Y1.013
X1.95Y0.813
X1.95Y0.213
X2.45Y1.763
X2.45Y1.663
X2.45Y1.363
X2.5484Y1.763
X2.55Y1.663
X2.55Y1.363
X2.55Y0.663
X2.55Y0.563
X2.55Y0.263
X2.6Y1.213
X2.6Y1.113
X2.6Y0.813
X2.6484Y0.663
X2.65Y1.663
X2.65Y1.363
X2.65Y0.563
X2.65Y0.263
X2.6984Y1.213
X2.7Y1.113
X2.7Y0.813
X2.75Y1.663
X2.75Y1.363
X2.75Y0.563
X2.75Y0.263
X2.8Y1.113
X2.8Y0.813
X2.85Y1.663
X2.85Y1.363
X2.85Y0.563
X2.85Y0.263
X2.9Y1.113
X2.9Y0.813
X2.95Y1.663
X2.95Y1.363
X2.95Y0.563
X2.95Y0.263
X3.0Y1.113
X3.0Y0.813
X3.05Y1.663
X3.05Y1.363
X3.05Y0.563
X3.05Y0.263
X3.1Y1.113
X3.1Y0.813
X3.15Y1.663
X3.15Y1.363
X3.15Y0.563
X3.15Y0.263
X3.2Y1.113
X3.2Y0.813
X3.25Y1.663
X3.25Y1.363
X3.25Y0.563
X3.25Y0.263
X3.35Y1.663
X3.35Y1.363
T4
X0.05Y0.063
X0.15Y0.063
X0.25Y0.063
X0.35Y0.063
X0.45Y0.063
X0.55Y0.063
X0.65Y0.063
X0.75Y0.063
X0.85Y0.063
X0.95Y0.063
X1.05Y0.063
X1.15Y0.063
X1.25Y0.063
X1.35Y0.063
X1.45Y0.063
X1.55Y0.063
X1.65Y0.063
X1.75Y0.063
X1.85Y0.063
X1.95Y0.063
X2.05Y0.063
X2.15Y0.063
X2.25Y0.063
X2.35Y0.063
X2.45Y0.063
X2.55Y0.063
X2.65Y0.063
X2.75Y0.063
X2.85Y0.063
X2.95Y0.063
X3.05Y0.063
X3.15Y0.063
X3.25Y0.063
X3.35Y0.063
X3.45Y0.063
X3.55Y0.063
X3.65Y0.063
X3.75Y0.063
X3.85Y0.063
T0
M30
